# xmcd
#
# Track frame offsets:
#	150
#	18832
#	41459
#	65424
#	82395
#	101051
#	118286
#	143644
#	154122
#	174143
#	194723
#	205981
#
# Disc length: 2979
#
# Revision: 2
# Processed by: cddbd v1.5.1PL0 Copyright (c) Steve Scherf et al.
# Submitted via: Kscd 1.3.3
# Normalized: r1:TRMNUM
#
DISCID=a80ba10c
DTITLE=Nickel Creek - Nickel Creek
DYEAR=1900
DGENRE=
TTITLE0=Ode To A Butterfly
TTITLE1=The Lighthouse's Tale
TTITLE2=Out of the Woods
TTITLE3=In the House of Tom Bombadil
TTITLE4=Reasons Why
TTITLE5=When You Come Back Down
TTITLE6=Sweet Afton
TTITLE7=Cuckoo's Nest
TTITLE8=The Hand Song
TTITLE9=Robin and Marian
TTITLE10=The Fox
TTITLE11=Pastures New
EXTD=
EXTT0=
EXTT1=
EXTT2=
EXTT3=
EXTT4=
EXTT5=
EXTT6=
EXTT7=
EXTT8=
EXTT9=
EXTT10=
EXTT11=
PLAYORDER=
